<mxfile host="app.diagrams.net" modified="2023-02-21T14:21:10.667Z" agent="5.0 (Macintosh; Intel Mac OS X 10_15_7) AppleWebKit/537.36 (KHTML, like Gecko) Chrome/109.0.0.0 Safari/537.36" etag="Xgv1TTAfAcLIXZW4UKna" version="20.8.21" type="github">
  <diagram id="6a731a19-8d31-9384-78a2-239565b7b9f0" name="Page-1">
    <mxGraphModel dx="1194" dy="665" grid="1" gridSize="10" guides="1" tooltips="1" connect="1" arrows="1" fold="1" page="1" pageScale="1" pageWidth="1169" pageHeight="827" background="none" math="0" shadow="0">
      <root>
        <mxCell id="0" />
        <mxCell id="1" parent="0" />
        <mxCell id="Frn38cRViBmfdXFBqn8P-63" style="edgeStyle=orthogonalEdgeStyle;rounded=0;orthogonalLoop=1;jettySize=auto;html=1;entryX=0;entryY=0.5;entryDx=0;entryDy=0;" edge="1" parent="1" source="Frn38cRViBmfdXFBqn8P-60" target="Frn38cRViBmfdXFBqn8P-62">
          <mxGeometry relative="1" as="geometry" />
        </mxCell>
        <mxCell id="Frn38cRViBmfdXFBqn8P-64" value="Notify" style="edgeLabel;html=1;align=center;verticalAlign=middle;resizable=0;points=[];" vertex="1" connectable="0" parent="Frn38cRViBmfdXFBqn8P-63">
          <mxGeometry x="-0.1855" y="-1" relative="1" as="geometry">
            <mxPoint as="offset" />
          </mxGeometry>
        </mxCell>
        <mxCell id="Frn38cRViBmfdXFBqn8P-60" value="Unified Service" style="whiteSpace=wrap;html=1;aspect=fixed;" vertex="1" parent="1">
          <mxGeometry x="190" y="414" width="80" height="80" as="geometry" />
        </mxCell>
        <mxCell id="Frn38cRViBmfdXFBqn8P-61" value="" style="whiteSpace=wrap;html=1;aspect=fixed;" vertex="1" parent="1">
          <mxGeometry x="410" y="414" width="286" height="286" as="geometry" />
        </mxCell>
        <mxCell id="Frn38cRViBmfdXFBqn8P-62" value="Notify Endpoint" style="rounded=1;whiteSpace=wrap;html=1;" vertex="1" parent="1">
          <mxGeometry x="465" y="450" width="120" height="60" as="geometry" />
        </mxCell>
      </root>
    </mxGraphModel>
  </diagram>
</mxfile>
